HIERARCHY
ROOT Hips
{
	OFFSET 0.000000 0.000000 0.000000
	CHANNELS 6 Xposition Yposition Zposition Zrotation Xrotation Yrotation
	JOINT Spine
	{
		OFFSET 2.740122 22.241188 -1.316808
		CHANNELS 3 Zrotation Xrotation Yrotation
		JOINT Chest
		{
			OFFSET 2.273691 16.837531 0.114178
			CHANNELS 3 Zrotation Xrotation Yrotation
			JOINT Neck
			{
				OFFSET -7.595728 5.275534 -0.559377
				CHANNELS 3 Zrotation Xrotation Yrotation
				JOINT Head
				{
					OFFSET 11.849545 17.906582 0.096122
					CHANNELS 3 Zrotation Xrotation Yrotation
					End Site
					{
						OFFSET 0.000000 -5.000000 0.000000
					}
				}
			}
			JOINT LeftShoulder
			{
				OFFSET -3.270959 0.367309 -13.996135
				CHANNELS 3 Zrotation Xrotation Yrotation
				JOINT LeftElbow
				{
					OFFSET -3.234497 -29.606544 -11.889122
					CHANNELS 3 Zrotation Xrotation Yrotation
					JOINT LeftWrist
					{
						OFFSET 12.783880 -20.775615 -1.489150
						CHANNELS 3 Zrotation Xrotation Yrotation
						End Site
						{
							OFFSET 0.000000 -5.000000 0.000000
						}
					}
				}
			}
			JOINT RightShoulder
			{
				OFFSET -6.600043 -0.879579 13.636656
				CHANNELS 3 Zrotation Xrotation Yrotation
				JOINT RightElbow
				{
					OFFSET -3.943187 -27.191920 13.127687
					CHANNELS 3 Zrotation Xrotation Yrotation
					JOINT RightWrist
					{
						OFFSET 10.720887 -23.389477 4.326343
						CHANNELS 3 Zrotation Xrotation Yrotation
						End Site
						{
							OFFSET 0.000000 -5.000000 0.000000
						}
					}
				}
			}
		}
	}
	JOINT LeftHip
	{
		OFFSET 7.203511 -0.775316 -8.648693
		CHANNELS 3 Zrotation Xrotation Yrotation
		JOINT LeftKnee
		{
			OFFSET 0.217292 -48.336496 -4.524339
			CHANNELS 3 Zrotation Xrotation Yrotation
			JOINT LeftAnkle
			{
				OFFSET -17.320827 -34.788190 4.062581
				CHANNELS 3 Zrotation Xrotation Yrotation
				JOINT LeftToe
				{
					OFFSET 17.871898 -9.253383 2.374824
					CHANNELS 3 Zrotation Xrotation Yrotation
					End Site
					{
						OFFSET 0.000000 -5.000000 0.000000
					}
				}
			}
		}
	}
	JOINT RightHip
	{
		OFFSET 4.745025 -1.278085 9.448461
		CHANNELS 3 Zrotation Xrotation Yrotation
		JOINT RightKnee
		{
			OFFSET 1.466590 -46.826591 5.494640
			CHANNELS 3 Zrotation Xrotation Yrotation
			JOINT RightAnkle
			{
				OFFSET -6.468264 -39.717531 -5.495883
				CHANNELS 3 Zrotation Xrotation Yrotation
				JOINT RightToe
				{
					OFFSET 19.327645 -3.934717 1.535781
					CHANNELS 3 Zrotation Xrotation Yrotation
					End Site
					{
						OFFSET 0.000000 -5.000000 0.000000
					}
				}
			}
		}
	}
}
MOTION
Frames: 8
Frame Time: 0.008333
46.588158 102.393698 -24.390438 -2.929933 -1.839470 -1.808005 0.409153 -2.224415 0.305772 1.866740 0.572706 0.990478 -0.000000 0.000000 0.000000 -0.000000 0.000000 0.000000 2.849145 3.333224 -1.577296 5.000000 0.000000 -1.457326 -0.000000 0.000000 0.000000 3.512111 -0.793396 1.837354 2.669609 3.721293 2.103388 -0.000000 0.000000 0.000000 -2.682772 1.715653 0.298658 5.000000 0.000000 2.403404 0.391545 -3.968540 -7.428161 -0.000000 0.000000 0.000000 8.543803 -4.975431 1.211297 -5.000000 7.306970 2.773242 -4.519871 -2.693039 -18.364131 -0.000000 0.000000 0.000000
47.158548 102.355624 -24.363125 -3.003165 -1.800367 -1.422602 0.314204 -2.148597 0.294081 2.003912 0.272569 0.585578 0.019115 0.745756 -0.493767 -0.000000 0.000000 0.000000 3.401800 3.472071 -1.832521 5.000000 0.000000 -1.672957 -0.000000 0.000000 0.000000 3.106104 -0.457444 1.581738 2.294292 3.524621 1.962862 -0.000000 0.000000 0.000000 -2.932197 1.707784 0.325488 5.000000 0.000000 2.392432 0.633063 -4.200890 -7.763454 -0.000000 0.000000 0.000000 9.296995 -4.691088 1.318200 -5.000000 6.451453 2.589354 -4.248814 -2.662188 -17.799496 -0.000000 0.000000 0.000000
47.735706 102.305183 -24.333594 -3.072376 -1.758561 -1.080645 0.226147 -2.062625 0.281207 2.083437 -0.026520 0.178555 0.013825 0.874184 -0.578693 -0.000000 0.000000 0.000000 3.952277 3.600971 -2.086861 5.000000 0.000000 -1.851279 -0.000000 0.000000 0.000000 2.760404 -0.127325 1.358408 1.913647 3.317786 1.815426 -0.000000 0.000000 0.000000 -3.198441 1.696831 0.354013 5.000000 0.000000 2.382874 0.911776 -4.415929 -8.047066 -0.000000 0.000000 0.000000 10.040402 -4.412236 1.420288 -5.000000 5.601519 2.416362 -4.044767 -2.621774 -17.285998 -0.000000 0.000000 0.000000
48.336805 102.247008 -24.309008 -3.106952 -1.695346 -0.769579 0.112275 -2.000807 0.271477 2.161996 -0.302129 -0.194694 0.004228 0.990997 -0.655839 -0.000000 0.000000 0.000000 4.496554 3.707879 -2.336781 5.000000 0.000000 -2.027069 -0.000000 0.000000 0.000000 2.383022 0.164058 1.127580 1.572642 3.131766 1.681565 -0.000000 0.000000 0.000000 -3.524933 1.657770 0.388035 5.000000 0.003287 2.376932 1.183506 -4.627352 -8.323071 -0.000000 0.000000 0.000000 10.713656 -4.175838 1.510719 -5.000000 4.780090 2.244952 -3.882294 -2.571256 -16.780099 -0.000000 0.000000 0.000000
48.934898 102.185251 -24.278656 -3.182287 -1.641873 -0.459242 0.062328 -1.919994 0.259965 2.199795 -0.586470 -0.583421 0.010127 1.126867 -0.745868 -0.000000 0.000000 0.000000 5.051026 3.808705 -2.591405 5.000000 0.000000 -2.200173 -0.000000 0.000000 0.000000 2.020996 0.444671 0.907471 1.240255 2.953976 1.551341 -0.000000 0.000000 0.000000 -3.804728 1.638849 0.417564 5.000000 0.010471 2.373716 1.444696 -4.838769 -8.599858 -0.000000 0.000000 0.000000 11.404554 -3.954046 1.602137 -5.000000 4.041196 2.076969 -3.813381 -2.500412 -16.287656 -0.000000 0.000000 0.000000
49.543900 102.119357 -24.249104 -3.253296 -1.567713 -0.150043 0.014374 -1.856900 0.250939 2.253874 -0.868614 -0.966385 -0.007152 1.256046 -0.830998 -0.000000 0.000000 0.000000 5.528104 3.966663 -2.821829 5.000000 0.000000 -2.411749 -0.000000 0.000000 0.000000 1.631644 0.725294 0.675722 0.915895 2.760367 1.413895 -0.000000 0.000000 0.000000 -4.099906 1.604156 0.448036 5.000000 0.009416 2.377881 1.699683 -5.045299 -8.866875 -0.000000 0.000000 0.000000 12.046048 -3.785165 1.687400 -5.000000 3.334772 1.908931 -3.773467 -2.429096 -15.831972 -0.000000 0.000000 0.000000
50.161003 102.049144 -24.215451 -3.323786 -1.504720 0.142577 -0.020777 -1.778353 0.240000 2.279733 -1.151355 -1.352851 -0.017160 1.401827 -0.927220 -0.000000 0.000000 0.000000 6.071598 4.025493 -3.067743 5.000000 0.000000 -2.530261 -0.000000 0.000000 0.000000 1.251512 0.997614 0.451270 0.607913 2.566080 1.277358 -0.000000 0.000000 0.000000 -4.397552 1.594212 0.479653 5.000000 0.000000 2.394447 2.039072 -5.221433 -9.039131 -0.000000 0.000000 0.000000 12.652418 -3.636674 1.767214 -5.000000 2.698036 1.741353 -3.793947 -2.344733 -15.378692 -0.000000 0.000000 0.000000
50.795020 101.970911 -24.182541 -3.383951 -1.433689 0.466857 -0.060116 -1.694627 0.228379 2.301963 -1.438769 -1.745668 -0.014470 1.557619 -1.030342 -0.000000 0.000000 0.000000 6.588488 4.114061 -3.307386 5.000000 0.000000 -2.681684 -0.000000 0.000000 0.000000 0.853699 1.248750 0.223174 0.307682 2.368181 1.139111 -0.000000 0.000000 0.000000 -4.710846 1.580894 0.512756 5.000000 0.000000 2.403349 2.292083 -5.433654 -9.310562 -0.000000 0.000000 0.000000 13.196684 -3.537435 1.840383 -5.000000 2.122359 1.567598 -3.883417 -2.232346 -14.848285 -0.000000 0.000000 0.000000
